<svg width="141" height="100" viewBox="0 0 141 100" fill="none" xmlns="http://www.w3.org/2000/svg">
<path d="M3.52119 16.349H14.9079C19.6028 16.349 22.9563 17.0502 24.9684 18.4525C27.011 19.8549 28.0323 21.867 28.0323 24.4889C28.0323 25.9217 27.7732 27.1412 27.2549 28.1472C26.7366 29.1228 26.0812 29.9002 25.2885 30.4795C24.5264 31.0587 23.7337 31.455 22.9106 31.6684V31.8971C23.7947 32.141 24.6788 32.5221 25.5629 33.0403C26.447 33.5281 27.1787 34.2903 27.7579 35.3268C28.3677 36.3329 28.6725 37.7048 28.6725 39.4425C28.6725 42.3997 27.5598 44.7319 25.3343 46.4391C23.1088 48.1464 20.0754 49 16.2341 49H3.52119V16.349ZM12.347 28.8789H14.9994C16.4627 28.8789 17.484 28.5741 18.0632 27.9643C18.673 27.3546 18.9778 26.6229 18.9778 25.7693C18.9778 23.9401 17.5907 23.0255 14.8164 23.0255H12.347V28.8789ZM12.347 35.3268V42.1863H15.4566C16.981 42.1863 18.048 41.8662 18.6577 41.2259C19.2675 40.5552 19.5723 39.7169 19.5723 38.7108C19.5723 37.8267 19.2675 37.0493 18.6577 36.3786C18.048 35.6774 16.92 35.3268 15.2737 35.3268H12.347ZM45.2188 23.2542C48.9077 23.2542 51.8192 24.2145 53.9532 26.1351C56.0873 28.0558 57.1543 30.952 57.1543 34.8238V38.7108H41.5605C41.6214 40.0217 42.1092 41.104 43.0238 41.9576C43.9689 42.8112 45.3255 43.2381 47.0938 43.2381C48.6791 43.2381 50.1272 43.0856 51.4381 42.7808C52.749 42.4759 54.1057 41.9881 55.508 41.3174V47.5824C54.2886 48.2226 52.9472 48.6951 51.4838 49C50.051 49.3049 48.237 49.4573 46.042 49.4573C43.4811 49.4573 41.1946 49.0152 39.1825 48.1311C37.2009 47.2165 35.6308 45.8142 34.4724 43.924C33.3139 42.0034 32.7346 39.5339 32.7346 36.5158C32.7346 33.4976 33.2529 31.013 34.2894 29.0618C35.3565 27.0802 36.8198 25.6169 38.6795 24.6718C40.5697 23.7267 42.7494 23.2542 45.2188 23.2542ZM45.539 29.199C44.5024 29.199 43.6335 29.5191 42.9324 30.1594C42.2617 30.7996 41.8653 31.8209 41.7434 33.2232H49.2431C49.2126 32.0952 48.8772 31.1502 48.237 30.388C47.6273 29.5954 46.7279 29.199 45.539 29.199ZM77.3743 23.2542C77.8621 23.2542 78.3652 23.2999 78.8834 23.3914C79.4017 23.4523 79.7828 23.4981 80.0267 23.5285L79.2493 31.7599C78.9444 31.6989 78.5633 31.6379 78.106 31.577C77.6792 31.516 77.0695 31.4855 76.2768 31.4855C75.5452 31.4855 74.7525 31.5922 73.8989 31.8056C73.0453 32.019 72.3136 32.4916 71.7039 33.2232C71.1246 33.9244 70.835 35.0372 70.835 36.5615V49H62.1006V23.7115H68.5942L69.9661 27.7357H70.3777C71.0789 26.4857 72.0545 25.4339 73.3044 24.5803C74.5848 23.6962 75.9415 23.2542 77.3743 23.2542ZM92.2708 49H83.5364V14.2454H92.2708V49ZM102.754 13.5137C104.004 13.5137 105.086 13.7729 106.001 14.2911C106.946 14.8094 107.418 15.8459 107.418 17.4008C107.418 18.8946 106.946 19.9159 106.001 20.4646C105.086 20.9829 104.004 21.2421 102.754 21.2421C101.474 21.2421 100.376 20.9829 99.4614 20.4646C98.5773 19.9159 98.1353 18.8946 98.1353 17.4008C98.1353 15.8459 98.5773 14.8094 99.4614 14.2911C100.376 13.7729 101.474 13.5137 102.754 13.5137ZM107.098 23.7115V49H98.3639V23.7115H107.098ZM129.012 23.2542C131.634 23.2542 133.768 24.0011 135.414 25.4949C137.06 26.9583 137.883 29.3057 137.883 32.5373V49H129.149V35.1896C129.149 33.5129 128.905 32.2477 128.417 31.3941C127.93 30.5404 127.152 30.1136 126.085 30.1136C124.439 30.1136 123.326 30.7996 122.747 32.1715C122.198 33.5129 121.924 35.4335 121.924 37.9334V49H113.189V23.7115H119.774L120.963 27.0497H121.283C122.076 25.8608 123.113 24.9309 124.393 24.2602C125.704 23.5895 127.244 23.2542 129.012 23.2542ZM25.0599 94H1.37189V88.1923L9.32887 80.1439C10.9751 78.4062 12.2556 77.019 13.1702 75.9825C14.0848 74.9459 14.725 74.0618 15.0908 73.3302C15.4871 72.5985 15.6853 71.8363 15.6853 71.0437C15.6853 70.0681 15.3652 69.3669 14.725 68.9401C14.1152 68.5133 13.3836 68.2999 12.5299 68.2999C11.4934 68.2999 10.4569 68.5895 9.42032 69.1688C8.38378 69.748 7.19481 70.6169 5.85341 71.7754L1.00605 66.1049C1.98162 65.2512 3.01816 64.4281 4.11568 63.6355C5.21319 62.8123 6.50886 62.1569 8.0027 61.6691C9.52703 61.1508 11.3715 60.8917 13.536 60.8917C15.731 60.8917 17.6364 61.288 19.2522 62.0806C20.8985 62.8428 22.1637 63.8946 23.0478 65.236C23.9624 66.5774 24.4197 68.1017 24.4197 69.809C24.4197 71.6991 24.0691 73.3911 23.3679 74.885C22.6972 76.3483 21.6606 77.8269 20.2583 79.3208C18.8864 80.8146 17.1639 82.4914 15.0908 84.351L12.7129 86.5003V86.729H25.0599V94ZM51.9918 77.7202C51.9918 81.1957 51.6108 84.1834 50.8486 86.6832C50.1169 89.1831 48.8822 91.1038 47.1445 92.4452C45.4068 93.7866 43.0898 94.4573 40.1936 94.4573C36.1084 94.4573 33.1207 92.9787 31.2305 90.0215C29.3404 87.0643 28.3953 82.9639 28.3953 77.7202C28.3953 74.1838 28.7611 71.1656 29.4928 68.6657C30.255 66.1658 31.5049 64.2452 33.2427 62.9038C34.9804 61.5624 37.2974 60.8917 40.1936 60.8917C44.2483 60.8917 47.2207 62.3703 49.1109 65.3275C51.0315 68.2846 51.9918 72.4156 51.9918 77.7202ZM37.1754 77.7202C37.1754 80.9213 37.3583 83.345 37.7242 84.9912C38.1205 86.607 38.9436 87.4149 40.1936 87.4149C41.413 87.4149 42.2209 86.607 42.6173 84.9912C43.0136 83.3755 43.2117 80.9518 43.2117 77.7202C43.2117 74.4886 43.0136 72.0497 42.6173 70.4035C42.2209 68.7572 41.413 67.9341 40.1936 67.9341C38.9436 67.9341 38.1205 68.7572 37.7242 70.4035C37.3583 72.0497 37.1754 74.4886 37.1754 77.7202ZM79.7012 87.6893H76.0886V94H67.3999V87.6893H54.3669V81.1957L67.9487 61.349H76.0886V81.1042H79.7012V87.6893ZM67.3999 81.1042V77.3086C67.3999 76.8514 67.4151 76.2569 67.4456 75.5252C67.4761 74.763 67.5066 74.0771 67.5371 73.4674C67.5676 72.8576 67.5828 72.5375 67.5828 72.507H67.3542C67.0493 73.1777 66.7749 73.7265 66.531 74.1533C66.3176 74.5801 66.0128 75.0984 65.6164 75.7081L62.0038 81.1042H67.3999ZM105.627 75.6624C105.627 79.5342 105.048 82.8877 103.889 85.7229C102.731 88.5277 100.902 90.6922 98.4018 92.2165C95.9019 93.7104 92.6246 94.4573 88.5699 94.4573C87.8992 94.4573 87.1218 94.4421 86.2377 94.4116C85.3536 94.3811 84.6067 94.3201 83.9969 94.2286V87.232C84.6372 87.3539 85.2774 87.4454 85.9176 87.5064C86.5578 87.5674 87.3047 87.5978 88.1583 87.5978C90.5973 87.5978 92.4874 87.2472 93.8288 86.5461C95.2007 85.8449 96.161 84.8693 96.7098 83.6194C97.2586 82.3694 97.5787 80.9365 97.6701 79.3208H97.3958C96.786 80.4183 95.9934 81.3329 95.0178 82.0645C94.0727 82.7657 92.6703 83.1163 90.8107 83.1163C88.0669 83.1163 85.8719 82.2017 84.2256 80.3725C82.6098 78.5129 81.8019 75.8758 81.8019 72.4613C81.8019 68.8334 82.8232 65.9982 84.8658 63.9556C86.9389 61.913 89.7741 60.8917 93.3715 60.8917C95.6275 60.8917 97.6854 61.4099 99.5451 62.4465C101.405 63.483 102.883 65.0836 103.981 67.2481C105.078 69.4126 105.627 72.2174 105.627 75.6624ZM93.6002 67.9341C92.5636 67.9341 91.7558 68.2846 91.1765 68.9858C90.6278 69.687 90.3534 70.815 90.3534 72.3698C90.3534 73.5893 90.6125 74.5649 91.1308 75.2965C91.649 75.9977 92.4417 76.3483 93.5087 76.3483C94.4843 76.3483 95.2769 75.9672 95.8867 75.2051C96.5269 74.4429 96.847 73.635 96.847 72.7814C96.847 71.9888 96.725 71.2266 96.4812 70.4949C96.2678 69.7632 95.9172 69.1535 95.4294 68.6657C94.9721 68.1779 94.3623 67.9341 93.6002 67.9341Z" fill="#FFC80C"/>
</svg>
